<?xml version="1.0" encoding="UTF-8" standalone="no"?>
<!DOCTYPE svg PUBLIC "-//W3C//DTD SVG 1.1//EN" "http://www.w3.org/Graphics/SVG/1.1/DTD/svg11.dtd">
<svg width="100%" height="100%" viewBox="0 0 891 89" version="1.1" xmlns="http://www.w3.org/2000/svg" xmlns:xlink="http://www.w3.org/1999/xlink" xml:space="preserve" xmlns:serif="http://www.serif.com/" style="fill-rule:evenodd;clip-rule:evenodd;stroke-linejoin:round;stroke-miterlimit:2;">
    <g transform="matrix(1,0,0,1,-5284.05,-2127.71)">
        <g>
            <g transform="matrix(3.81651,0,-6.09072e-17,3.81651,-18223.3,-16444.8)">
                <path d="M6167.49,4889.46C6167.35,4889.41 6167.25,4889.35 6167.18,4889.28C6167.11,4889.21 6167.05,4889.11 6167,4888.97L6167,4866.97L6167.42,4866.48L6170.23,4866.48L6170.65,4866.9L6170.72,4867.11L6170.72,4888.73L6170.44,4889.22C6170.02,4889.36 6169.54,4889.44 6169.01,4889.44C6168.48,4889.45 6167.98,4889.46 6167.49,4889.46ZM6182.33,4889.46L6181.84,4888.9L6181.77,4888.61L6181.77,4867.42L6182.12,4866.72C6182.54,4866.58 6182.97,4866.5 6183.4,4866.49C6183.84,4866.49 6184.3,4866.48 6184.78,4866.48L6185.27,4866.97L6185.35,4867.18L6185.35,4888.66L6184.99,4889.22C6184.56,4889.36 6184.12,4889.44 6183.68,4889.44C6183.25,4889.45 6182.79,4889.46 6182.33,4889.46ZM6176.06,4880.05C6175.76,4880.01 6175.48,4879.92 6175.23,4879.81C6174.97,4879.69 6174.75,4879.51 6174.56,4879.26C6174.37,4879.07 6174.24,4878.85 6174.16,4878.59C6174.08,4878.33 6174.04,4878.06 6174.04,4877.76C6174.09,4877.48 6174.18,4877.21 6174.3,4876.95C6174.43,4876.69 6174.58,4876.46 6174.77,4876.26C6175.05,4876.03 6175.36,4875.88 6175.69,4875.81C6176.03,4875.73 6176.38,4875.72 6176.76,4875.77L6177.76,4876.33C6178.05,4876.63 6178.22,4876.95 6178.29,4877.3C6178.36,4877.65 6178.37,4878.02 6178.33,4878.41L6177.62,4879.56C6177.39,4879.75 6177.14,4879.88 6176.88,4879.95C6176.61,4880.02 6176.34,4880.05 6176.06,4880.05Z" style="fill:url(#_Linear1);fill-rule:nonzero;"/>
                <path d="M6187.17,4889.34L6186.68,4889.06L6186.61,4888.99L6186.61,4878.69L6187.03,4878.34L6189.77,4878.34L6190.19,4878.69L6190.19,4886.16L6204.27,4886.16L6204.9,4886.72L6204.88,4888.57L6204.6,4889.06L6204.11,4889.34L6187.17,4889.34ZM6201.79,4879.63C6201.61,4879.58 6201.42,4879.51 6201.23,4879.41C6201.04,4879.31 6200.87,4879.19 6200.72,4879.05C6200.48,4878.77 6200.32,4878.46 6200.22,4878.12C6200.13,4877.79 6200.11,4877.43 6200.15,4877.06L6200.79,4875.91C6201.03,4875.72 6201.3,4875.58 6201.58,4875.49C6201.86,4875.4 6202.17,4875.35 6202.52,4875.35C6202.8,4875.4 6203.07,4875.49 6203.32,4875.63C6203.58,4875.77 6203.81,4875.96 6204.02,4876.19C6204.15,4876.44 6204.26,4876.69 6204.33,4876.95C6204.4,4877.21 6204.44,4877.48 6204.44,4877.76C6204.39,4878.06 6204.31,4878.32 6204.19,4878.55C6204.07,4878.79 6203.89,4879 6203.64,4879.19C6203.41,4879.39 6203.12,4879.53 6202.79,4879.6C6202.45,4879.67 6202.12,4879.68 6201.79,4879.63ZM6187.03,4877.34L6186.61,4876.99L6186.61,4866.79L6187.17,4866.44L6204.11,4866.44L6204.6,4866.72C6204.79,4866.95 6204.88,4867.26 6204.88,4867.65L6204.88,4868.73L6204.53,4869.31L6204.18,4869.52L6190.19,4869.52L6190.19,4876.99L6189.77,4877.34L6187.03,4877.34Z" style="fill:url(#_Linear2);fill-rule:nonzero;"/>
                <path d="M6206.7,4889.34L6206.21,4888.78L6206.14,4888.36L6206.14,4867.21L6206.7,4866.58L6206.92,4866.51L6223.64,4866.51L6224.14,4866.79C6224.32,4867.02 6224.42,4867.32 6224.42,4867.69L6224.42,4868.73L6224.07,4869.38L6223.71,4869.59L6209.72,4869.59L6209.72,4888.71L6209.23,4889.34L6206.7,4889.34ZM6221.14,4889.39L6220.79,4889.04L6220.79,4879.56L6211.17,4879.56L6210.68,4878.98L6210.71,4877.34L6210.99,4876.64L6211.34,4876.43L6223.97,4876.43L6224.39,4876.57L6224.46,4876.85L6224.46,4888.9L6224.25,4889.25L6224.04,4889.39L6221.14,4889.39Z" style="fill:url(#_Linear3);fill-rule:nonzero;"/>
                <path d="M6226.1,4889.43L6225.68,4889.01L6225.68,4866.93L6226.31,4866.51L6243.16,4866.51L6243.72,4866.86C6243.9,4867.14 6243.99,4867.47 6243.96,4867.86C6243.94,4868.25 6243.93,4868.61 6243.93,4868.94C6243.83,4869.08 6243.74,4869.2 6243.65,4869.3C6243.55,4869.4 6243.44,4869.5 6243.3,4869.59L6229.31,4869.59L6229.31,4888.8L6229.1,4889.22C6228.67,4889.41 6228.2,4889.48 6227.68,4889.43C6227.16,4889.39 6226.63,4889.39 6226.1,4889.43ZM6231.18,4889.36L6230.59,4888.73L6230.59,4886.79L6230.8,4886.35L6231.11,4886.14L6240.32,4886.14L6240.32,4871.44L6240.61,4870.95C6241.09,4870.8 6241.58,4870.72 6242.08,4870.72L6243.6,4870.72L6244.02,4871.14L6244.02,4889.01L6243.53,4889.36L6231.18,4889.36ZM6234.52,4875.28C6234.29,4875.17 6234.07,4875.06 6233.88,4874.94C6233.69,4874.82 6233.52,4874.67 6233.38,4874.48C6233.19,4874.25 6233.06,4873.98 6232.99,4873.66C6232.92,4873.35 6232.91,4873.03 6232.95,4872.7L6233.52,4871.63C6233.75,4871.44 6234.01,4871.29 6234.3,4871.17C6234.59,4871.06 6234.9,4871 6235.23,4871C6235.52,4871.04 6235.81,4871.13 6236.09,4871.24C6236.37,4871.36 6236.61,4871.56 6236.79,4871.84C6236.95,4872.09 6237.07,4872.34 6237.17,4872.6C6237.26,4872.86 6237.28,4873.15 6237.24,4873.48C6237.19,4873.73 6237.1,4873.97 6236.98,4874.2C6236.86,4874.44 6236.68,4874.65 6236.44,4874.83C6236.21,4875.08 6235.92,4875.22 6235.59,4875.24C6235.25,4875.27 6234.9,4875.28 6234.52,4875.28Z" style="fill:url(#_Linear4);fill-rule:nonzero;"/>
                <path d="M6253.01,4889.46L6252.51,4888.97L6252.44,4888.69L6252.44,4867.35L6252.8,4866.72C6253.22,4866.58 6253.68,4866.5 6254.18,4866.49C6254.68,4866.49 6255.17,4866.48 6255.65,4866.48L6256.14,4867.04L6256.21,4867.25L6256.21,4888.59L6255.86,4889.22C6255.44,4889.36 6254.98,4889.44 6254.48,4889.44C6253.98,4889.45 6253.49,4889.46 6253.01,4889.46ZM6247.72,4879.98C6247.47,4879.94 6247.23,4879.85 6246.99,4879.74C6246.76,4879.62 6246.55,4879.46 6246.36,4879.26C6246.17,4879.02 6246.03,4878.75 6245.93,4878.45C6245.83,4878.15 6245.8,4877.8 6245.85,4877.41C6245.89,4877.17 6245.98,4876.95 6246.1,4876.74C6246.23,4876.53 6246.41,4876.32 6246.64,4876.12C6246.88,4875.93 6247.15,4875.81 6247.46,4875.73C6247.77,4875.66 6248.09,4875.65 6248.42,4875.7C6248.65,4875.75 6248.87,4875.83 6249.06,4875.95C6249.26,4876.06 6249.45,4876.22 6249.64,4876.43C6249.82,4876.66 6249.95,4876.92 6250.02,4877.2C6250.09,4877.48 6250.13,4877.79 6250.13,4878.13C6250.08,4878.41 6249.99,4878.67 6249.85,4878.9C6249.71,4879.14 6249.52,4879.36 6249.29,4879.56C6249.04,4879.7 6248.78,4879.81 6248.53,4879.88C6248.27,4879.95 6248,4879.98 6247.72,4879.98ZM6260.26,4879.98C6260.03,4879.94 6259.81,4879.86 6259.61,4879.77C6259.42,4879.68 6259.23,4879.56 6259.04,4879.42C6258.81,4879.12 6258.63,4878.82 6258.52,4878.52C6258.4,4878.22 6258.36,4877.87 6258.41,4877.48C6258.46,4877.24 6258.54,4877.01 6258.66,4876.78C6258.77,4876.54 6258.95,4876.32 6259.18,4876.12C6259.43,4875.93 6259.72,4875.81 6260.05,4875.73C6260.38,4875.66 6260.71,4875.65 6261.05,4875.7C6261.29,4875.79 6261.5,4875.9 6261.69,4876.02C6261.87,4876.13 6262.06,4876.29 6262.25,4876.5C6262.45,4876.73 6262.59,4876.99 6262.66,4877.27C6262.73,4877.55 6262.69,4878.05 6262.55,4878.77L6262.04,4879.42C6261.8,4879.61 6261.53,4879.75 6261.22,4879.84C6260.91,4879.94 6260.59,4879.98 6260.26,4879.98Z" style="fill:url(#_Linear5);fill-rule:nonzero;"/>
                <path d="M6265.19,4889.46L6264.7,4888.9L6264.7,4867.14L6265.12,4866.65L6265.62,4866.51L6273.1,4866.51L6273.24,4866.58C6273.38,4866.9 6273.45,4867.28 6273.45,4867.71L6273.45,4868.91L6273.17,4869.5L6273.1,4869.57L6268.4,4869.57L6268.4,4888.66L6268.05,4889.22C6267.63,4889.36 6267.17,4889.44 6266.67,4889.44C6266.17,4889.45 6265.68,4889.46 6265.19,4889.46ZM6275.09,4889.36L6274.37,4889.08L6274.09,4888.45L6274.09,4867.35L6274.44,4866.65C6274.87,4866.51 6275.34,4866.45 6275.84,4866.47C6276.34,4866.49 6276.82,4866.51 6277.29,4866.51L6277.81,4867L6277.88,4867.21L6277.88,4886.39L6282.65,4886.39C6282.93,4886.73 6283.06,4887.1 6283.03,4887.49C6283.01,4887.88 6283,4888.3 6283,4888.73L6282.79,4889.29L6282.65,4889.36L6275.09,4889.36Z" style="fill:url(#_Linear6);fill-rule:nonzero;"/>
                <path d="M6284.68,4889.43L6284.26,4888.94L6284.26,4866.93L6284.89,4866.51L6301.81,4866.51L6302.37,4866.86C6302.51,4867.14 6302.58,4867.46 6302.58,4867.83L6302.58,4868.87L6301.95,4869.59L6287.87,4869.59L6287.87,4888.52L6287.52,4889.29C6287.09,4889.43 6286.64,4889.49 6286.15,4889.47C6285.65,4889.44 6285.17,4889.43 6284.68,4889.43ZM6293.69,4889.11C6293.46,4889.06 6293.22,4888.98 6292.99,4888.86C6292.76,4888.74 6292.54,4888.57 6292.33,4888.33C6292.15,4888.08 6292.02,4887.8 6291.95,4887.47C6291.88,4887.14 6291.87,4886.81 6291.91,4886.46C6291.96,4886.23 6292.05,4886.02 6292.19,4885.83C6292.33,4885.64 6292.51,4885.46 6292.71,4885.27C6292.94,4885.07 6293.21,4884.93 6293.52,4884.86C6293.82,4884.79 6294.14,4884.78 6294.49,4884.82C6294.72,4884.87 6294.93,4884.96 6295.12,4885.08C6295.31,4885.21 6295.5,4885.36 6295.7,4885.55C6295.89,4885.78 6296.02,4886.05 6296.09,4886.33C6296.16,4886.62 6296.19,4886.93 6296.19,4887.26C6296.15,4887.54 6296.05,4887.8 6295.91,4888.04C6295.77,4888.28 6295.58,4888.5 6295.33,4888.69C6295.1,4888.82 6294.85,4888.94 6294.59,4889.04C6294.34,4889.13 6294.03,4889.15 6293.69,4889.11ZM6299.61,4889.43L6299.05,4889.15L6298.98,4889.08L6298.98,4879.63L6289.55,4879.63L6289.13,4879.26C6289.04,4878.98 6288.99,4878.66 6288.99,4878.3L6288.99,4877.27L6289.27,4876.71L6289.64,4876.5L6302.09,4876.5L6302.51,4876.64L6302.58,4876.71L6302.58,4889.08C6302.16,4889.36 6301.68,4889.48 6301.13,4889.43C6300.59,4889.39 6300.08,4889.39 6299.61,4889.43Z" style="fill:url(#_Linear7);fill-rule:nonzero;"/>
                <path d="M6316.36,4889.34L6315.87,4888.78L6315.8,4888.36L6315.8,4867.21L6316.36,4866.58L6316.57,4866.51L6333.3,4866.51L6333.79,4866.79C6333.98,4867.02 6334.07,4867.32 6334.07,4867.69L6334.07,4868.73L6333.72,4869.38L6333.37,4869.59L6319.38,4869.59L6319.38,4888.71L6318.89,4889.34L6316.36,4889.34ZM6330.8,4889.39L6330.45,4889.04L6330.45,4879.56L6320.83,4879.56L6320.34,4878.98L6320.36,4877.34L6320.64,4876.64L6320.99,4876.43L6333.63,4876.43L6334.05,4876.57L6334.12,4876.85L6334.12,4888.9L6333.91,4889.25L6333.7,4889.39L6330.8,4889.39Z" style="fill:url(#_Linear8);fill-rule:nonzero;"/>
                <path d="M6335.85,4889.43L6335.57,4889.29L6335.29,4888.73L6335.29,4867.09L6335.78,4866.46L6338.4,4866.46L6338.89,4867.02L6338.96,4867.37L6338.96,4888.52L6338.61,4889.29C6338.19,4889.43 6337.75,4889.49 6337.28,4889.47C6336.81,4889.44 6336.33,4889.43 6335.85,4889.43ZM6350.43,4889.18L6350.08,4888.9L6350.08,4881.62L6340.69,4881.62L6340.2,4881.41C6339.97,4881.13 6339.85,4880.78 6339.84,4880.38C6339.83,4879.97 6339.83,4879.58 6339.83,4879.19L6340.11,4878.62L6340.32,4878.48L6353.05,4878.48L6353.68,4878.9L6353.68,4888.97L6353.33,4889.18L6350.43,4889.18ZM6350.5,4876.92L6350.08,4876.64L6350.08,4869.57L6340.3,4869.57L6339.81,4868.98L6339.83,4867.21L6340.18,4866.58L6340.39,4866.44L6352.91,4866.44L6353.61,4866.86L6353.68,4866.93L6353.68,4876.64L6353.26,4876.92L6350.5,4876.92ZM6344.18,4875.84L6343.17,4875.35C6342.89,4875.07 6342.71,4874.76 6342.61,4874.43C6342.52,4874.09 6342.49,4873.7 6342.54,4873.27L6343.17,4872.14C6343.41,4871.94 6343.66,4871.79 6343.92,4871.7C6344.19,4871.61 6344.48,4871.56 6344.81,4871.56C6345.11,4871.61 6345.37,4871.7 6345.6,4871.85C6345.82,4872 6346.08,4872.19 6346.38,4872.43C6346.52,4872.66 6346.63,4872.91 6346.71,4873.17C6346.78,4873.44 6346.82,4873.71 6346.82,4873.99C6346.78,4874.27 6346.69,4874.53 6346.57,4874.78C6346.44,4875.02 6346.23,4875.23 6345.94,4875.42C6345.76,4875.61 6345.51,4875.73 6345.17,4875.81C6344.84,4875.88 6344.51,4875.89 6344.18,4875.84Z" style="fill:url(#_Linear9);fill-rule:nonzero;"/>
                <path d="M6355.43,4889.34L6354.94,4889.06L6354.87,4888.99L6354.87,4878.69L6355.29,4878.34L6358.03,4878.34L6358.45,4878.69L6358.45,4886.16L6372.54,4886.16L6373.17,4886.72L6373.14,4888.57L6372.86,4889.06L6372.37,4889.34L6355.43,4889.34ZM6370.06,4879.63C6369.87,4879.58 6369.68,4879.51 6369.49,4879.41C6369.31,4879.31 6369.14,4879.19 6368.98,4879.05C6368.75,4878.77 6368.58,4878.46 6368.49,4878.12C6368.4,4877.79 6368.37,4877.43 6368.42,4877.06L6369.05,4875.91C6369.3,4875.72 6369.56,4875.58 6369.85,4875.49C6370.13,4875.4 6370.44,4875.35 6370.78,4875.35C6371.06,4875.4 6371.33,4875.49 6371.59,4875.63C6371.85,4875.77 6372.08,4875.96 6372.28,4876.19C6372.42,4876.44 6372.52,4876.69 6372.59,4876.95C6372.66,4877.21 6372.7,4877.48 6372.7,4877.76C6372.65,4878.06 6372.57,4878.32 6372.45,4878.55C6372.34,4878.79 6372.15,4879 6371.9,4879.19C6371.67,4879.39 6371.39,4879.53 6371.05,4879.6C6370.72,4879.67 6370.38,4879.68 6370.06,4879.63ZM6355.29,4877.34L6354.87,4876.99L6354.87,4866.79L6355.43,4866.44L6372.37,4866.44L6372.86,4866.72C6373.05,4866.95 6373.14,4867.26 6373.14,4867.65L6373.14,4868.73L6372.79,4869.31L6372.44,4869.52L6358.45,4869.52L6358.45,4876.99L6358.03,4877.34L6355.29,4877.34Z" style="fill:url(#_Linear10);fill-rule:nonzero;"/>
                <path d="M6374.97,4889.34L6374.48,4888.78L6374.41,4888.36L6374.41,4867.21L6374.97,4866.58L6375.18,4866.51L6391.91,4866.51L6392.4,4866.79C6392.59,4867.02 6392.68,4867.32 6392.68,4867.69L6392.68,4868.73L6392.33,4869.38L6391.98,4869.59L6377.99,4869.59L6377.99,4888.71L6377.5,4889.34L6374.97,4889.34ZM6389.4,4889.39L6389.05,4889.04L6389.05,4879.56L6379.44,4879.56L6378.95,4878.98L6378.97,4877.34L6379.25,4876.64L6379.6,4876.43L6392.24,4876.43L6392.66,4876.57L6392.73,4876.85L6392.73,4888.9L6392.52,4889.25L6392.31,4889.39L6389.4,4889.39Z" style="fill:url(#_Linear11);fill-rule:nonzero;"/>
            </g>
            <g transform="matrix(6.12323e-17,-1,1,6.12323e-17,2941.32,7722.92)">
                <path d="M5550.97,2342.74L5595.21,2368.28L5595.21,2419.35L5550.97,2444.89L5506.74,2419.35L5506.74,2368.28L5550.97,2342.74Z" style="fill:url(#_Radial12);"/>
                <path d="M5550.97,2342.74L5595.21,2368.28L5595.21,2419.35L5550.97,2444.89L5506.74,2419.35L5506.74,2368.28L5550.97,2342.74ZM5550.97,2357.17L5582.71,2375.49C5582.71,2375.49 5582.71,2412.14 5582.71,2412.14C5582.71,2412.14 5550.97,2430.46 5550.97,2430.46C5550.97,2430.46 5519.24,2412.14 5519.24,2412.14C5519.24,2412.14 5519.24,2375.49 5519.24,2375.49L5550.97,2357.17Z" style="fill:rgb(136,136,136);"/>
            </g>
        </g>
    </g>
    <defs>
        <linearGradient id="_Linear1" x1="0" y1="0" x2="1" y2="0" gradientUnits="userSpaceOnUse" gradientTransform="matrix(225.724,0,0,23.0384,6167,4877.95)"><stop offset="0" style="stop-color:rgb(136,136,136);stop-opacity:0.15"/><stop offset="0.6" style="stop-color:rgb(157,157,157);stop-opacity:0.13"/><stop offset="0.81" style="stop-color:rgb(205,205,205);stop-opacity:0.06"/><stop offset="1" style="stop-color:white;stop-opacity:0"/></linearGradient>
        <linearGradient id="_Linear2" x1="0" y1="0" x2="1" y2="0" gradientUnits="userSpaceOnUse" gradientTransform="matrix(225.724,0,0,23.0384,6167,4877.95)"><stop offset="0" style="stop-color:rgb(136,136,136);stop-opacity:0.15"/><stop offset="0.6" style="stop-color:rgb(157,157,157);stop-opacity:0.13"/><stop offset="0.81" style="stop-color:rgb(205,205,205);stop-opacity:0.06"/><stop offset="1" style="stop-color:white;stop-opacity:0"/></linearGradient>
        <linearGradient id="_Linear3" x1="0" y1="0" x2="1" y2="0" gradientUnits="userSpaceOnUse" gradientTransform="matrix(225.724,0,0,23.0384,6167,4877.95)"><stop offset="0" style="stop-color:rgb(136,136,136);stop-opacity:0.15"/><stop offset="0.6" style="stop-color:rgb(157,157,157);stop-opacity:0.13"/><stop offset="0.81" style="stop-color:rgb(205,205,205);stop-opacity:0.06"/><stop offset="1" style="stop-color:white;stop-opacity:0"/></linearGradient>
        <linearGradient id="_Linear4" x1="0" y1="0" x2="1" y2="0" gradientUnits="userSpaceOnUse" gradientTransform="matrix(225.724,0,0,23.0384,6167,4877.95)"><stop offset="0" style="stop-color:rgb(136,136,136);stop-opacity:0.15"/><stop offset="0.6" style="stop-color:rgb(157,157,157);stop-opacity:0.13"/><stop offset="0.81" style="stop-color:rgb(205,205,205);stop-opacity:0.06"/><stop offset="1" style="stop-color:white;stop-opacity:0"/></linearGradient>
        <linearGradient id="_Linear5" x1="0" y1="0" x2="1" y2="0" gradientUnits="userSpaceOnUse" gradientTransform="matrix(225.724,0,0,23.0384,6167,4877.95)"><stop offset="0" style="stop-color:rgb(136,136,136);stop-opacity:0.15"/><stop offset="0.6" style="stop-color:rgb(157,157,157);stop-opacity:0.13"/><stop offset="0.81" style="stop-color:rgb(205,205,205);stop-opacity:0.06"/><stop offset="1" style="stop-color:white;stop-opacity:0"/></linearGradient>
        <linearGradient id="_Linear6" x1="0" y1="0" x2="1" y2="0" gradientUnits="userSpaceOnUse" gradientTransform="matrix(225.724,0,0,23.0384,6167,4877.95)"><stop offset="0" style="stop-color:rgb(136,136,136);stop-opacity:0.15"/><stop offset="0.6" style="stop-color:rgb(157,157,157);stop-opacity:0.13"/><stop offset="0.81" style="stop-color:rgb(205,205,205);stop-opacity:0.06"/><stop offset="1" style="stop-color:white;stop-opacity:0"/></linearGradient>
        <linearGradient id="_Linear7" x1="0" y1="0" x2="1" y2="0" gradientUnits="userSpaceOnUse" gradientTransform="matrix(225.724,0,0,23.0384,6167,4877.95)"><stop offset="0" style="stop-color:rgb(136,136,136);stop-opacity:0.15"/><stop offset="0.6" style="stop-color:rgb(157,157,157);stop-opacity:0.13"/><stop offset="0.81" style="stop-color:rgb(205,205,205);stop-opacity:0.06"/><stop offset="1" style="stop-color:white;stop-opacity:0"/></linearGradient>
        <linearGradient id="_Linear8" x1="0" y1="0" x2="1" y2="0" gradientUnits="userSpaceOnUse" gradientTransform="matrix(225.724,0,0,23.0384,6167,4877.95)"><stop offset="0" style="stop-color:rgb(136,136,136);stop-opacity:0.15"/><stop offset="0.6" style="stop-color:rgb(157,157,157);stop-opacity:0.13"/><stop offset="0.81" style="stop-color:rgb(205,205,205);stop-opacity:0.06"/><stop offset="1" style="stop-color:white;stop-opacity:0"/></linearGradient>
        <linearGradient id="_Linear9" x1="0" y1="0" x2="1" y2="0" gradientUnits="userSpaceOnUse" gradientTransform="matrix(225.724,0,0,23.0384,6167,4877.95)"><stop offset="0" style="stop-color:rgb(136,136,136);stop-opacity:0.15"/><stop offset="0.6" style="stop-color:rgb(157,157,157);stop-opacity:0.13"/><stop offset="0.81" style="stop-color:rgb(205,205,205);stop-opacity:0.06"/><stop offset="1" style="stop-color:white;stop-opacity:0"/></linearGradient>
        <linearGradient id="_Linear10" x1="0" y1="0" x2="1" y2="0" gradientUnits="userSpaceOnUse" gradientTransform="matrix(225.724,0,0,23.0384,6167,4877.95)"><stop offset="0" style="stop-color:rgb(136,136,136);stop-opacity:0.15"/><stop offset="0.6" style="stop-color:rgb(157,157,157);stop-opacity:0.13"/><stop offset="0.81" style="stop-color:rgb(205,205,205);stop-opacity:0.06"/><stop offset="1" style="stop-color:white;stop-opacity:0"/></linearGradient>
        <linearGradient id="_Linear11" x1="0" y1="0" x2="1" y2="0" gradientUnits="userSpaceOnUse" gradientTransform="matrix(225.724,0,0,23.0384,6167,4877.95)"><stop offset="0" style="stop-color:rgb(136,136,136);stop-opacity:0.15"/><stop offset="0.6" style="stop-color:rgb(157,157,157);stop-opacity:0.13"/><stop offset="0.81" style="stop-color:rgb(205,205,205);stop-opacity:0.06"/><stop offset="1" style="stop-color:white;stop-opacity:0"/></linearGradient>
        <radialGradient id="_Radial12" cx="0" cy="0" r="1" gradientUnits="userSpaceOnUse" gradientTransform="matrix(51.0781,0,0,51.0781,5578.48,2377.44)"><stop offset="0" style="stop-color:white;stop-opacity:1"/><stop offset="0.48" style="stop-color:rgb(90,174,255);stop-opacity:1"/><stop offset="1" style="stop-color:rgb(40,149,255);stop-opacity:1"/></radialGradient>
    </defs>
</svg>
