<?xml version="1.0" encoding="UTF-8" standalone="no"?>
<!DOCTYPE svg PUBLIC "-//W3C//DTD SVG 1.1//EN" "http://www.w3.org/Graphics/SVG/1.1/DTD/svg11.dtd">
<svg width="100%" height="100%" viewBox="0 0 103 89" version="1.1" xmlns="http://www.w3.org/2000/svg" xmlns:xlink="http://www.w3.org/1999/xlink" xml:space="preserve" xmlns:serif="http://www.serif.com/" style="fill-rule:evenodd;clip-rule:evenodd;stroke-linejoin:round;stroke-miterlimit:2;">
    <g transform="matrix(1,0,0,1,-5637.54,-2350.03)">
        <g transform="matrix(6.12323e-17,-1,1,6.12323e-17,3294.8,7945.24)">
            <path d="M5550.97,2342.74L5595.21,2368.28L5595.21,2419.35L5550.97,2444.89L5506.74,2419.35L5506.74,2368.28L5550.97,2342.74Z" style="fill:url(#_Radial1);"/>
            <path d="M5550.97,2342.74L5595.21,2368.28L5595.21,2419.35L5550.97,2444.89L5506.74,2419.35L5506.74,2368.28L5550.97,2342.74ZM5550.97,2357.17L5582.71,2375.49C5582.71,2375.49 5582.71,2412.14 5582.71,2412.14C5582.71,2412.14 5550.97,2430.46 5550.97,2430.46C5550.97,2430.46 5519.24,2412.14 5519.24,2412.14C5519.24,2412.14 5519.24,2375.49 5519.24,2375.49L5550.97,2357.17Z" style="fill:rgb(136,136,136);"/>
        </g>
    </g>
    <defs>
        <radialGradient id="_Radial1" cx="0" cy="0" r="1" gradientUnits="userSpaceOnUse" gradientTransform="matrix(51.0781,0,0,51.0781,5578.48,2377.44)"><stop offset="0" style="stop-color:white;stop-opacity:1"/><stop offset="0.48" style="stop-color:rgb(122,122,122);stop-opacity:1"/><stop offset="1" style="stop-color:rgb(81,81,81);stop-opacity:1"/></radialGradient>
    </defs>
</svg>
